<svg viewBox="0 0 175 218" xmlns="http://www.w3.org/2000/svg"><title>Group 13</title><defs><filter x="-7.9%" y="-30.7%" width="115.8%" height="161.3%" filterUnits="objectBoundingBox" id="a"><feGaussianBlur stdDeviation="4.134" in="SourceGraphic"/></filter></defs><g transform="translate(9 .028)" fill="none" fill-rule="evenodd"><g transform="translate(4.478 90.96)"><path d="M6.475 67.118c16.794 13.475 47.023-7.81 47.023-20.213 0-12.404 16.565-32.743-14.784-35.55C7.365 8.548-10.32 53.642 6.474 67.118z" fill="#B5A38D"/><path d="M16.551 72.733c16.794 13.475 47.023-7.81 47.023-20.214 0-12.403 16.565-32.742-14.784-35.55C17.442 14.163-.243 59.258 16.551 72.734z" fill="#161616" opacity=".293"/><path d="M142.083 67.118C125.29 80.593 95.06 59.308 95.06 46.905c0-12.404-16.564-32.743 14.784-35.55 31.35-2.807 49.033 42.287 32.24 55.763z" fill="#B5A38D"/><ellipse fill="#D0C1AF" cx="73.893" cy="52.779" rx="58.219" ry="48.287"/><path d="M132.007 70.487c-16.794 13.475-47.023-7.81-47.023-20.213 0-12.404-16.565-32.743 14.784-35.55 31.349-2.807 49.033 42.287 32.24 55.763z" fill="#161616" opacity=".112"/><path d="M73.893 4.492c32.154 0 58.22 21.619 58.22 48.287s-26.066 48.287-58.22 48.287V4.492z" fill="#DDCAB3"/><g opacity=".69" transform="translate(64.937 16.844)" stroke="#877A69" stroke-width="3.499"><path d="M9.517.561v82.007" stroke-linecap="square"/><path d="M.56 12.914h17.913M.56 27.512h17.913M.56 57.832h17.913M.56 42.111h17.913" stroke-linecap="round"/></g><path fill="#7C986F" fill-rule="nonzero" d="M89.0103572 55.7953283L89.2185979 64.7765706 107.127303 64.3588384 106.919062 55.3775961 106.359264 31.2339812 106.151023 22.2527389 88.2423181 22.6704711 88.4505588 31.6517134z"/><path d="M27.517 27.862c.739.337 1.584.704 2.53 1.091a96.52 96.52 0 0 0 8.871 3.112c10.08 3.013 21.025 4.715 32.484 4.427 10.415-.26 20.805-1.822 30.793-4.26a151.65 151.65 0 0 0 10.506-2.955c1.943-.626 3.371-1.132 4.217-1.456 6.353-2.437 9.534-9.577 7.105-15.95-2.43-6.372-9.549-9.562-15.902-7.126a84.797 84.797 0 0 1-2.952 1.01c-2.6.838-5.556 1.682-8.796 2.473-8.393 2.047-17.085 3.354-25.586 3.567-8.673.217-17.09-1.091-24.833-3.406a72.05 72.05 0 0 1-6.604-2.311 43.973 43.973 0 0 1-1.615-.696c-.218-.1-.326-.151-.319-.148-6.083-3.05-13.481-.577-16.523 5.525s-.576 13.521 5.508 16.572c.253.127.626.306 1.116.53z" fill="#333" fill-rule="nonzero" opacity=".35"/><path fill="#82B873" fill-rule="nonzero" d="M102.497333 57.4373697L119.159713 50.8403633 110.762737 29.5041455 107.47411 21.1479373 90.8117308 27.7449438 94.1003582 36.1011519z"/><path d="M27.517 24.493c.739.337 1.584.704 2.53 1.091a96.52 96.52 0 0 0 8.871 3.112c10.08 3.013 21.025 4.715 32.484 4.427 10.415-.26 20.805-1.822 30.793-4.259a151.65 151.65 0 0 0 10.506-2.955c1.943-.627 3.371-1.133 4.217-1.457 6.353-2.436 9.534-9.577 7.105-15.95-2.43-6.372-9.549-9.562-15.902-7.126a84.797 84.797 0 0 1-2.952 1.01c-2.6.838-5.556 1.682-8.796 2.473-8.393 2.048-17.085 3.354-25.586 3.567-8.673.218-17.09-1.091-24.833-3.406a72.05 72.05 0 0 1-6.604-2.311 43.973 43.973 0 0 1-1.615-.696l-.319-.147c-6.083-3.051-13.481-.578-16.523 5.524s-.576 13.522 5.508 16.572c.253.127.626.307 1.116.53z" fill="#77BB73" fill-rule="nonzero"/><path d="M99.084 34.25c7.73 0 10.636-5.723 10.636-13.475 0-7.753-5.146-9.545-12.875-9.545-7.73 0-11.756 2.915-11.756 10.668 0 7.752 6.266 12.352 13.995 12.352z" fill="#96CD87"/><path d="M93.083 11.516a16.838 16.838 0 0 0-1.276 6.451 16.849 16.849 0 0 0 10.9 15.778c-1.067.33-2.271.505-3.623.505-7.729 0-13.995-4.6-13.995-12.352 0-6.377 2.725-9.482 7.994-10.382z" fill="#000" opacity=".235"/><path d="M29.346.831c.98 10.406 4.963 20.07 11.193 28.336-.543-.153-1.083-.31-1.62-.471a96.52 96.52 0 0 1-8.871-3.112 68.385 68.385 0 0 1-2.53-1.091c-.49-.224-.864-.404-1.117-.53-6.084-3.051-8.55-10.471-5.508-16.573A12.298 12.298 0 0 1 29.346.83z" fill="#679264" fill-rule="nonzero"/><ellipse fill="#FFF" cx="103.563" cy="18.529" rx="2.799" ry="2.807"/></g><g transform="translate(6.718 150.476)"><ellipse fill="#C1B09B" cx="27.43" cy="25.828" rx="27.43" ry="25.828"/><ellipse fill="#E2D8CB" cx="29.11" cy="22.138" rx="20.153" ry="18.769"/><path d="M21.523 51.056C9.213 48.512 0 38.183 0 25.828 0 12.758 10.312 1.954 23.693.238c-5.093 7.98-8.019 17.308-8.019 27.274 0 8.451 2.104 16.443 5.849 23.544z" fill="#5F5F5F" opacity=".293"/><g transform="translate(91.807)"><ellipse fill="#C1B09B" cx="27.43" cy="25.828" rx="27.43" ry="25.828"/><ellipse fill="#E2D8CB" cx="26.87" cy="22.138" rx="20.153" ry="18.769"/><path d="M23.237 51.356C10.077 49.456 0 38.75 0 25.828 0 12.906 10.078 2.201 23.237.3c-6.143 7.044-9.802 15.904-9.802 25.528 0 9.624 3.66 18.484 9.802 25.528z" fill="#252525" opacity=".195"/></g></g><path d="M78.372 113.419c24.071 0 45.903-11.62 45.903-46.041S29.11 37.448 29.11 71.869s25.19 41.55 49.262 41.55z" fill="#212121" opacity=".278"/><g transform="translate(15.674)"><ellipse fill="#DDCAB3" cx="18.473" cy="18.529" rx="18.473" ry="18.529"/><ellipse fill="#E6DBCD" cx="18.473" cy="18.529" rx="11.756" ry="11.791"/><path d="M36.947 18.529c0 10.233-8.271 18.529-18.474 18.529A18.378 18.378 0 0 1 5.91 32.112s6.719-9.966 10.885-14.145c4.536-4.55 15.222-12.04 15.222-12.04a18.494 18.494 0 0 1 4.93 12.602z" fill="#000" opacity=".171"/><path d="M12.71 36.138C5.33 33.71 0 26.744 0 18.528 0 8.297 8.27 0 18.473 0c.614 0 1.22.03 1.818.089-6.365 6.3-10.215 14.511-10.215 23.493 0 4.417.931 8.648 2.635 12.556z" fill="#0C0C0C" opacity=".093"/></g><g transform="translate(96.285)"><ellipse fill="#DDCAB3" cx="18.473" cy="18.529" rx="18.473" ry="18.529"/><ellipse fill="#E6DBCD" cx="18.473" cy="18.529" rx="11.756" ry="11.791"/><path d="M0 19.34c0 10.233 8.27 18.529 18.473 18.529 4.943 0 9.433-1.948 12.748-5.12 0 0-1.552-6.36-11.068-15.343C10.636 8.422 5.103 6.554 5.103 6.554A18.495 18.495 0 0 0 0 19.34z" fill="#000" opacity=".171"/><path d="M11.188 35.561A18.535 18.535 0 0 1 0 18.53C0 8.296 8.27 0 18.473 0l.333.003c-5.465 7.091-8.73 16.065-8.73 25.825 0 3.352.385 6.611 1.112 9.733z" fill="#0C0C0C" opacity=".093"/></g><g transform="translate(14.555 6.738)"><path d="M62.138 101.673c34.317 0 62.137-7.069 62.137-38.708C124.275 31.325 94.775 0 60.458 0S0 31.326 0 62.965c0 31.64 27.82 38.708 62.138 38.708z" fill="#DFCBB3"/><path d="M62.697.044v101.629h-.56C27.82 101.673 0 94.604 0 62.965 0 31.325 26.14 0 60.458 0c.749 0 1.495.015 2.24.044z" fill="#D2C2AF"/></g><g transform="translate(53.74 53.902)"><path d="M22.952 45.004c12.676 0 22.951-6.988 22.951-19.702C45.903 12.588 35.007 0 22.331 0 9.656 0 0 12.588 0 25.302s10.276 19.702 22.952 19.702z" fill="#EDDECD"/><path d="M23.512.036V45c-.187.003-.373.004-.56.004C10.276 45.004 0 38.016 0 25.302 0 12.588 9.656 0 22.331 0c.396 0 .79.012 1.18.036z" fill="#E4D5C4"/><path d="M22.952 8.984c-2.783 0-6.158 1.534-6.158 4.325 0 2.79 3.511 5.554 6.294 5.554 2.782 0 6.022-2.764 6.022-5.554 0-2.791-3.376-4.325-6.158-4.325z" fill="#000"/></g><g transform="translate(45.903 40.427)"><ellipse fill="#000" cx="7.277" cy="7.299" rx="7.277" ry="7.299"/><ellipse fill="#FFF" cx="8.957" cy="4.492" rx="2.239" ry="2.246"/></g><g transform="translate(90.687 40.427)"><ellipse fill="#000" cx="7.277" cy="7.299" rx="7.277" ry="7.299"/><ellipse fill="#FFF" cx="8.957" cy="4.492" rx="2.239" ry="2.246"/></g><ellipse fill="#FFF" cx="123.156" cy="43.795" rx="2.239" ry="2.246"/><path d="M97.405 19.09c5.038 2.808 16.794 11.791 21.272 18.53" stroke="#FFF" stroke-width="3.499" stroke-linecap="round"/></g></svg>