<svg width="225" height="262" viewBox="0 0 225 262" xmlns="http://www.w3.org/2000/svg" xmlns:xlink="http://www.w3.org/1999/xlink"><title>Group 3</title><g fill="none" fill-rule="evenodd"><path d="M148.558 113.932a12.75 12.75 0 0 1 .003 0h-.003zm.484-.174c1.376-.087 3.205-.332 5.327-.728 4.67-.871 10.24-2.368 15.611-4.226 10.955-3.791 19.263-8.656 20.191-10.545 3.068-6.246 10.619-8.822 16.865-5.754 6.246 3.068 8.822 10.618 5.754 16.864-4.893 9.96-17.5 17.342-34.569 23.249-14.534 5.03-28.77 7.685-36.256 5.636-6.712-1.837-10.664-8.768-8.827-15.48 1.779-6.497 8.33-10.408 14.836-8.985.253.006.616-.003 1.068-.031z" fill="#404241" fill-rule="nonzero"/><path d="M148.558 113.932a12.75 12.75 0 0 1 .003 0h-.003zm62.807-17.937c-4.83.99-9.149 3.96-11.498 8.44-1.237 2.361-12.316 8.44-26.925 13.176-7.164 2.323-14.59 4.193-20.818 5.282-2.83.494-5.269.8-7.103.909a18.95 18.95 0 0 1-1.425.039 17.753 17.753 0 0 0-10.862 1.196c.065-.752.198-1.509.404-2.263 1.779-6.497 8.33-10.408 14.836-8.985.253.006.616-.003 1.068-.031 1.376-.087 3.205-.332 5.327-.728 4.67-.871 10.24-2.368 15.611-4.226 10.955-3.791 19.263-8.656 20.191-10.545 3.068-6.246 10.619-8.822 16.865-5.754a12.55 12.55 0 0 1 4.329 3.49z" fill="#FFF" fill-rule="nonzero" opacity=".278"/><ellipse fill="#FFF" cx="150.593" cy="3.186" rx="2.465" ry="2.464"/><path d="M78.09 116.12l-.757 22.787c-.915-.03-2.363.598-4.338 2.317-2.537 2.208-5.219 5.69-7.728 10.077-4.808 8.406-8.364 19.162-8.883 25.89l-22.733-1.756c.794-10.271 5.413-24.244 11.825-35.454 8.5-14.861 19.346-24.302 32.613-23.861z" fill="#262626" fill-rule="nonzero"/><path d="M58.163 168.23c-.96 3.33-1.584 6.43-1.78 8.96l-22.732-1.755c.22-2.836.73-5.954 1.49-9.219l23.022 2.015z" fill="#000" fill-rule="nonzero" opacity=".107"/><path d="M77.936 120.748c-10.179 2.429-18.735 10.974-25.711 23.171-5.732 10.02-10.03 22.248-11.445 32.066l-7.129-.55c.794-10.271 5.413-24.244 11.825-35.454 8.5-14.861 19.346-24.302 32.613-23.861l-.153 4.628z" fill="#949494" fill-rule="nonzero" opacity=".151"/><g transform="translate(74.078 178.94)"><rect fill="#5C855F" x="2.246" width="32.566" height="67.267" rx="16.283"/><path d="M34.811 62.745H2.246V37.308H34.81v25.437z" fill="#B2B2B2"/><path fill="#000" opacity=".155" d="M2.246 7.349h13.475v61.615H2.246z"/><path fill="#4A4A4A" d="M1.841 65.014h33.363v3.693H1.841z"/><path d="M.251 65.114c-.025-.354-.037-.71-.037-1.07 0-9.157 8.195-16.58 18.304-16.58 10.11 0 18.304 7.423 18.304 16.58 0 .36-.012.716-.037 1.07H.25z" fill="gray"/><path d="M15.543 47.681c-3.512 4.202-5.565 9.28-5.565 14.749 0 .906.057 1.801.167 2.684H.25c-.025-.354-.037-.71-.037-1.07 0-8.24 6.635-15.075 15.329-16.363z" fill="#393939" opacity=".278"/></g><g transform="translate(120.557 178.94)"><rect fill="#5C855F" x="2.246" width="32.566" height="67.267" rx="16.283"/><path d="M34.811 62.745H2.246V37.308H34.81v25.437z" fill="#B2B2B2"/><path fill="#000" opacity=".155" d="M2.246 7.349h13.475v61.615H2.246z"/><path fill="#4A4A4A" d="M1.841 65.014h33.363v3.693H1.841z"/><path d="M.251 65.114c-.025-.354-.037-.71-.037-1.07 0-9.157 8.195-16.58 18.304-16.58 10.11 0 18.304 7.423 18.304 16.58 0 .36-.012.716-.037 1.07H.25z" fill="gray"/><path d="M15.543 47.681c-3.512 4.202-5.565 9.28-5.565 14.749 0 .906.057 1.801.167 2.684H.25c-.025-.354-.037-.71-.037-1.07 0-8.24 6.635-15.075 15.329-16.363z" fill="#393939" opacity=".278"/></g><rect fill="#5C855F" x="72.822" y="167.028" width="82.28" height="38.243" rx="19.122"/><path d="M142.644 111.23l-63.087 1.69c-.869 0-10.485 18.93-13.028 49.525-1.39 16.713-1.851 36.512 2.93 57.025.738.275 92.439 5.451 95.416-6.89.972-4.033 1.531-32.513-1.131-54.948-2.812-23.695-14.41-46.402-21.1-46.402z" fill="#404241"/><path d="M153.545 218.127c.765-10.662.826-37.741-1.791-59.794-2.243-18.9-9.297-37.26-16.014-46.918l6.904-.185c6.69 0 18.288 22.707 21.1 46.402 2.662 22.435 2.103 50.915 1.13 54.947-.605 2.512-4.887 4.299-11.33 5.548z" fill="#FFF" opacity=".069"/><path d="M150.111 114.959h-37.588v105.819c-22.028.048-42.716-1.178-43.065-1.308-4.78-20.513-4.319-40.312-2.93-57.025 2.544-30.596 12.16-49.524 13.029-49.524l63.087-1.69c2.681 0 5.178 1.386 7.467 3.728z" fill="#212121" opacity=".855"/><path d="M148.267 114.26l-71.309 1.299c-.175 0 .168 6.944 5.594 15.327 9.992 15.438 30.111 41.237 30.111 41.237s16.012-20.288 27.743-34.996c9.34-11.71 13.991-22.867 7.86-22.867z" fill="#FFF"/><path d="M113.723 170.78l-1.06 1.343s-20.12-25.799-30.111-41.237c-5.426-8.383-5.769-15.327-5.594-15.327l36.765-.67v55.892z" fill="#262626" opacity=".101"/><g transform="translate(64.028 64.837)"><ellipse fill="#BCB7A4" cx="9.107" cy="9.091" rx="9.107" ry="9.091"/><path d="M9.107 0v18.181c-5.03 0-9.107-4.07-9.107-9.09C0 4.07 4.077 0 9.107 0z" fill="#EEE7CB"/></g><ellipse fill="#F8F0CF" cx="153.531" cy="73.927" rx="9.107" ry="9.091"/><path d="M154.473 64.837v18.181c-4.856 0-8.793-4.07-8.793-9.09 0-5.021 3.937-9.091 8.793-9.091z" fill="#000" opacity=".231"/><path d="M151.961 51.671v50.141c0 11.434-9.269 20.703-20.703 20.703H96.037c-11.434 0-20.703-9.269-20.703-20.703v-50.14h76.627z" fill="#EEE7CB"/><path d="M113.02 121.888V51.044h38.313v50.141c0 11.434-9.269 20.703-20.703 20.703h-17.61z" fill="#F8F0CF"/><ellipse fill="#FFF" opacity=".477" cx="90.722" cy="95.243" rx="9.735" ry="9.718"/><path d="M94.87 132.693c-10.891-.605-19.536-9.628-19.536-20.67V61.486h4.54v23.397c0 11.434 9.27 20.703 20.704 20.703h26.14c11.433 0 20.702-9.27 20.702-20.703V61.487h4.541v50.535c0 10.863-8.365 19.77-19.005 20.635a9.58 9.58 0 0 1-.81.412c-9.096 4.105-14.979 6.158-17.647 6.158-2.536 0-8.888-2.092-19.056-6.276a9.596 9.596 0 0 1-.573-.258z" fill="#000" opacity=".174"/><ellipse fill="#FFF" opacity=".477" cx="135.945" cy="95.243" rx="9.735" ry="9.718"/><path d="M94.87 127.893c-10.891-.605-19.536-9.628-19.536-20.67V56.686h4.54v23.397c0 11.434 9.27 20.703 20.704 20.703h26.14c11.433 0 20.702-9.27 20.702-20.703V56.687h4.541v50.535c0 10.863-8.365 19.77-19.005 20.635a9.58 9.58 0 0 1-.81.412c-9.096 4.105-14.979 6.158-17.647 6.158-2.536 0-8.888-2.092-19.056-6.276a9.596 9.596 0 0 1-.573-.258z" fill="#CA9342"/><path d="M113.02 100.833v33.577c-3.026-.46-8.938-2.518-17.736-6.175a9.593 9.593 0 0 1-.612-.28c-10.798-.702-19.338-9.683-19.338-20.658v-50.61h4.5V80.13c0 11.434 9.269 20.703 20.703 20.703h12.482z" fill="#B5853C"/><path d="M129.913 110.555c.667-.658.673-1.73.015-2.396a1.697 1.697 0 0 0-2.398-.015c-8.15 8.041-19.563 7.152-26.576.946a1.697 1.697 0 0 0-2.394.145c-.62.7-.556 1.77.145 2.391 8.248 7.3 21.664 8.345 31.208-1.071z" fill="#434343" fill-rule="nonzero"/><path d="M103.032 71.12l2.389-4.487c-5.473-2.909-15.505-2.238-19.767 1.255l3.227 3.93c2.621-2.149 10.436-2.672 14.15-.698z" fill="#B5853C" fill-rule="nonzero"/><path fill="#F5F1E4" d="M12.32 184.521h64.011v66.046H12.32z"/><path d="M23.12 210.049h42.217m-42.217 5.843h42.217M23.12 221.48h42.217M23.12 233.2h27.122m-27.122 5.511h13.365M23.12 227.538h18.676" opacity=".381" stroke="#424242" stroke-linecap="round" stroke-width="2.4"/><path fill="#010101" opacity=".042" d="M12.32 184.399h33.998v66.068H12.32z"/><path d="M101.374 80.133a1.977 1.977 0 0 0 .68-3.894c-2.502-.436-8.274-.14-11.953.438a1.977 1.977 0 1 0 .614 3.905c3.284-.515 8.685-.793 10.659-.449zm22.974 0a1.977 1.977 0 0 1-.68-3.894c2.502-.436 8.274-.14 11.953.438a1.977 1.977 0 1 1-.614 3.905c-3.284-.515-8.685-.793-10.659-.449z" fill="#434343" fill-rule="nonzero"/><path d="M119.99 66.633l2.39 4.487c3.714-1.974 11.528-1.451 14.15.697l3.226-3.93c-4.261-3.492-14.293-4.163-19.766-1.254z" fill="#B5853C" fill-rule="nonzero"/><rect fill="#E0D9BA" transform="rotate(90 53.653 183.996)" x="40.255" y="178.926" width="26.797" height="10.141" rx="5.07"/><rect fill="#E0D9BA" transform="rotate(90 43.513 183.996)" x="30.114" y="178.926" width="26.797" height="10.141" rx="5.07"/><rect fill="#E0D9BA" transform="rotate(90 33.372 183.996)" x="19.973" y="178.926" width="26.797" height="10.141" rx="5.07"/><g opacity=".132" transform="translate(27.323 178.559)" fill="#3A3A3A"><rect transform="rotate(90 26.33 11.584)" x="15.478" y="6.513" width="21.705" height="10.141" rx="5.07"/><rect transform="rotate(90 16.19 11.584)" x="5.337" y="6.513" width="21.705" height="10.141" rx="5.07"/><rect transform="rotate(90 6.048 11.584)" x="-4.804" y="6.513" width="21.705" height="10.141" rx="5.07"/></g><g transform="translate(27.323 174.959)" fill="#F8F0CF"><rect transform="rotate(90 26.33 11.584)" x="15.478" y="6.513" width="21.705" height="10.141" rx="5.07"/><rect transform="rotate(90 16.19 11.584)" x="5.337" y="6.513" width="21.705" height="10.141" rx="5.07"/><rect transform="rotate(90 6.048 11.584)" x="-4.804" y="6.513" width="21.705" height="10.141" rx="5.07"/></g><path d="M75.334 44.887c0-2.775.667-5.526 2.005-8.252.704-1.434 16.787-6.083 34.106-7.84 15.609-1.585 37.174 5.113 38.51 7.84.892 1.818 1.56 9.72 2.006 23.706-11.659-1.782-24.677-2.778-38.41-2.778-13.656 0-26.607.985-38.217 2.748V44.887z" fill="#000" opacity=".172"/><path d="M75.334 42.487c0-2.775.667-5.526 2.005-8.252.704-1.434 16.787-6.083 34.106-7.84 15.609-1.585 37.174 5.113 38.51 7.84.892 1.818 1.56 9.72 2.006 23.706-11.659-1.782-24.677-2.778-38.41-2.778-13.656 0-26.607.985-38.217 2.748V42.487z" fill="#404241"/><path d="M112.876 26.273v28.89c-13.409.033-26.124 1.014-37.542 2.748V42.487c0-2.775.667-5.526 2.005-8.252.704-1.434 16.787-6.083 34.106-7.84.472-.049.95-.09 1.431-.122z" fill="#000" opacity=".654"/><path fill="#6A6A6A" d="M113.511 16.243l62.069 16.47-61.778 10.642-63.148-11.553z"/><path d="M113.723 16.3v27.04L50.654 31.802l62.857-15.559.212.057z" fill="#333" opacity=".361"/><path d="M61.324 32.951c.095 5.282.083 8.708-.036 10.279" stroke="#555" stroke-width="2.4"/><path d="M64.822 56.409c-3.303-8.247 1.17-6.427 1.461-10.316.291-3.889-2.283-5.6-5.297-5.52-3.015.08-5.407 3.103-5.137 6.85.27 3.748 4.744 8.268 8.973 8.986z" fill="#555"/><path d="M62.634 40.722c-1.978 1.036-3.314 3.468-3.108 6.319.171 2.374 2.03 5.059 4.444 6.89.193.708.47 1.526.852 2.478-4.229-.718-8.703-5.238-8.973-8.986-.27-3.747 2.122-6.77 5.137-6.85a6.793 6.793 0 0 1 1.648.15z" fill="#323232"/><path d="M196.376 66.595c0-2.982 2.686-5.4 6-5.4 3.313 0 6 2.418 6 5.4V129.1c0 2.983-2.687 5.4-6 5.4-3.314 0-6-2.417-6-5.4V66.595z" fill="#C2BBA0" fill-rule="nonzero"/><path d="M202.474 61.24v73.214a5.4 5.4 0 0 1-6.098-5.355V66.595a5.4 5.4 0 0 1 6.098-5.355z" fill="#151515" fill-rule="nonzero" opacity=".083"/><path d="M208.376 76.29h-12V61.794c0-2.982 2.686-5.4 6-5.4 3.313 0 6 2.418 6 5.4V76.29z" fill="#202020" fill-rule="nonzero" opacity=".376"/><path d="M208.376 84.959v37.31h-12v-37.31h12z" fill="#202020" fill-rule="nonzero" opacity=".11"/><path d="M186.065 52.968c5.737 3.443 9.463 5.133 11.18 5.07 1.036-.037 4.718 9.447-.057 8.873-2.55-.307-6.259 1.445-11.123 5.257v-19.2z" fill="#84806F"/><g transform="translate(179.723 48.959)"><rect fill="#636055" x=".9" y=".162" width="6.389" height="25.68" rx="3.194"/><path d="M4.144.162v25.68h-.05A3.194 3.194 0 0 1 .9 22.648V3.356A3.194 3.194 0 0 1 4.144.162z" fill="#343434" opacity=".402"/></g><path d="M218.507 52.968c-5.737 3.443-9.464 5.133-11.18 5.07-1.037-.037-4.719 9.447.056 8.873 2.551-.307 6.26 1.445 11.124 5.257v-19.2z" fill="#84806F"/><rect fill="#B5AD8F" x="193.196" y="52.804" width="18.242" height="20.052" rx="3.6"/><path d="M202.523 52.804v20.051h-5.727a3.6 3.6 0 0 1-3.6-3.6V56.404a3.6 3.6 0 0 1 3.6-3.6h5.727z" fill="#484640" opacity=".124"/><g transform="translate(216.88 48.959)"><rect fill="#636055" x=".9" y=".162" width="6.389" height="25.68" rx="3.194"/><path d="M4.144.162v25.68h-.05A3.194 3.194 0 0 1 .9 22.648V3.356A3.194 3.194 0 0 1 4.144.162z" fill="#343434" opacity=".402"/></g><g transform="rotate(-180 108.711 60.137)"><rect fill="#E0D9BA" width="31.89" height="10.658" rx="5.329"/><rect fill="#F8F0CF" x="6.06" width="25.83" height="10.658" rx="5.329"/><g transform="translate(0 10.658)"><rect fill="#E0D9BA" width="31.89" height="10.658" rx="5.329"/><rect fill="#F8F0CF" x="6.06" width="25.83" height="10.658" rx="5.329"/></g><g transform="translate(0 21.316)"><rect fill="#E0D9BA" width="31.89" height="10.658" rx="5.329"/><rect fill="#F8F0CF" x="6.06" width="25.83" height="10.658" rx="5.329"/></g></g><circle fill="#FFF" cx="206.858" cy="57.959" r="1.8"/></g></svg>